<?xml version="1.0" encoding="UTF-8" standalone="no"?>
<!-- Created with Inkscape (http://www.inkscape.org/) -->

<svg
   width="32"
   height="32"
   viewBox="0 0 32 32"
   version="1.1"
   id="svg1"
   sodipodi:docname="favicon.svg"
   inkscape:version="1.3.2 (091e20e, 2023-11-25, custom)"
   xmlns:inkscape="http://www.inkscape.org/namespaces/inkscape"
   xmlns:sodipodi="http://sodipodi.sourceforge.net/DTD/sodipodi-0.dtd"
   xmlns="http://www.w3.org/2000/svg"
   xmlns:svg="http://www.w3.org/2000/svg">
  <sodipodi:namedview
     id="namedview1"
     pagecolor="#505050"
     bordercolor="#eeeeee"
     borderopacity="1"
     inkscape:showpageshadow="0"
     inkscape:pageopacity="0"
     inkscape:pagecheckerboard="0"
     inkscape:deskcolor="#505050"
     inkscape:zoom="24.28125"
     inkscape:cx="16"
     inkscape:cy="16"
     inkscape:window-width="1920"
     inkscape:window-height="991"
     inkscape:window-x="-9"
     inkscape:window-y="-9"
     inkscape:window-maximized="1"
     inkscape:current-layer="svg1" />
  <defs
     id="defs1" />
  <g
     id="layer1"
     style="fill:#ff0000">
    <path
       id="path1"
       style="fill:#ff0000;stroke-width:1.46259"
       d="M 12.972656,2.4960937 C 12.25572,2.3716131 17.708622,8.5768981 18.806641,15.443359 20.334276,24.996769 6.640625,8.3886719 6.640625,8.3886719 c 0,0 2.2248299,17.9261711 -4.5078125,20.5253901 3.5085329,-0.589724 11.5675135,-1.841383 17.6093755,-1.980468 0.0013,-6.21e-4 0.0025,-0.0014 0.0039,-0.002 0.0018,-7.32e-4 0.0039,-0.0013 0.0059,-0.002 1.74159,-1.224468 5.181917,-3.648664 8.333985,-6.742188 6.336948,-6.219323 0.225927,0.192364 -7.695313,0 -7.92124,-0.192363 0.05824,0.06345 6.847656,-6.027344 C 34.02787,8.0691893 27.237432,14.159731 17.279297,5.8886719 14.4782,3.5634742 13.253224,2.5448033 12.972656,2.4960937 Z M 2.1328125,28.914062 c -0.00735,0.0012 -0.011221,0.0027 -0.017578,0.0039 l 0.00195,0.002 c 0.00523,-0.0018 0.010493,-0.0039 0.015625,-0.0059 z M 30.136719,19.707031 c -0.393191,0.06236 -3.213156,4.274801 -8.386719,6.699219 -0.478855,0.224398 -0.736038,0.343006 -1.09375,0.509766 -0.0012,0.0021 -0.0027,0.0038 -0.0039,0.0059 3.080603,-0.0096 5.465412,0.32303 6.126953,1.275391 0.790073,-1.599636 1.653346,-3.475426 2.382812,-5.445313 0.831066,-2.244092 1.153333,-3.073266 0.97461,-3.044922 z m -29.1738284,9.40625 c -0.020816,0.0037 -0.036708,0.0075 -0.060547,0.01172 0.00883,0.0037 0.03205,-0.0012 0.060547,-0.0098 z" />
  </g>
</svg>
